<svg xmlns="http://www.w3.org/2000/svg" version="1.1" xmlns:xlink="http://www.w3.org/1999/xlink" xmlns:svgjs="http://svgjs.dev/svgjs" width="765" height="625" viewBox="0 0 300 300" class="svg-animations " style="background: rgb(27, 26, 23);"><svg viewBox="0 0 194.0072479248047 113.99283599853516" width="70" height="70" fill="#e45826" x="30.164993286132812" y="115"><svg width="194" height="109" viewBox="0 0 194 109" xmlns="http://www.w3.org/2000/svg">
	<path d="M185.905 47.433C196.708 36.5922 196.708 18.9645 185.905 8.12375C175.102 -2.71703 157.536 -2.71703 146.733 8.12375C140.015 14.8651 137.489 24.2331 139.123 32.9634L117.229 10.9934C112.009 5.75518 105.064 2.88556 97.6355 2.88556C90.2216 2.88556 83.2617 5.77036 78.0569 10.9934C72.8521 16.2164 69.9774 23.2006 69.9774 30.6404C69.9774 31.7791 70.0682 32.9027 70.2043 34.0111L47.2518 10.9934C42.0318 5.75518 35.087 2.88556 27.6732 2.88556C20.2594 2.88556 13.2995 5.77036 8.09468 10.9934C2.88988 16.2164 0 23.2006 0 30.6404C0 38.0802 2.87475 45.0644 8.07955 50.2874L58.4935 100.878C63.6983 106.101 70.6582 108.986 78.0721 108.986C85.4859 108.986 92.4458 106.101 97.6506 100.878C103.899 94.6071 106.517 86.059 105.518 77.8601L128.456 100.878C133.661 106.101 140.62 108.986 148.034 108.986C155.448 108.986 162.408 106.101 167.613 100.878C178.416 90.037 178.416 72.4093 167.613 61.5685L161.122 55.0549C162.832 55.3738 164.557 55.5408 166.281 55.5408C173.408 55.556 180.504 52.8534 185.905 47.433ZM93.7924 96.9909C85.1379 105.676 71.0365 105.676 62.382 96.9909L11.968 46.4005C3.31352 37.7158 3.31352 23.565 11.968 14.8803C16.144 10.6897 21.727 8.38187 27.6732 8.38187C33.6194 8.38187 39.2025 10.6897 43.3784 14.8803L75.0309 46.6435C75.9387 47.934 76.9373 49.1639 78.0721 50.3026L96.531 68.8413C102.311 77.4957 101.403 89.3537 93.7924 96.9909ZM163.77 96.9909C155.115 105.676 141.014 105.676 132.359 96.9909L100.677 65.2125C99.784 63.9371 98.8005 62.7225 97.6657 61.5837L79.1917 43.0451C73.4119 34.3906 74.3198 22.5326 81.9303 14.8803C86.1062 10.6897 91.6893 8.38187 97.6355 8.38187C103.582 8.38187 109.165 10.6897 113.341 14.8803L163.755 65.4706C172.424 74.1706 172.424 88.3061 163.77 96.9909ZM150.606 12.0258C154.782 7.83527 160.365 5.52743 166.312 5.52743C172.258 5.52743 177.841 7.83527 182.017 12.0258C190.671 20.7106 190.671 34.8613 182.017 43.5461C177.841 47.7367 172.258 50.0445 166.312 50.0445C160.365 50.0445 154.782 47.7367 150.606 43.5461C141.952 34.8461 141.952 20.7106 150.606 12.0258Z"></path>
	</svg></svg><svg fill="#e45826" x="110.16499328613281" y="133.68000030517578"><path d="M4.38 26L1.79 26L1.79 2.99L20.99 2.99Q22.59 2.99 23.71 4.13Q24.83 5.26 24.83 6.83L24.83 6.83L24.83 13.58Q24.83 15.15 23.71 16.29Q22.59 17.42 20.99 17.42L20.99 17.42L4.38 17.42L4.38 26ZM5.63 14.80L5.63 14.80L20.99 14.80Q21.50 14.80 21.87 14.45Q22.24 14.10 22.24 13.58L22.24 13.58L22.24 6.83Q22.24 6.32 21.87 5.95Q21.50 5.58 20.99 5.58L20.99 5.58L5.63 5.58Q5.12 5.58 4.75 5.95Q4.38 6.32 4.38 6.83L4.38 6.83L4.38 13.58Q4.38 14.10 4.75 14.45Q5.12 14.80 5.63 14.80ZM29.60 26L26.98 26L26.98 11.31Q26.98 9.71 28.11 8.58Q29.25 7.44 30.85 7.44L30.85 7.44L41.28 7.44L41.28 10.06L30.85 10.06Q30.34 10.06 29.97 10.43Q29.60 10.80 29.60 11.31L29.60 11.31L29.60 26ZM62.27 26L47.23 26Q45.63 26 44.50 24.86Q43.36 23.73 43.36 22.13L43.36 22.13L43.36 15.41L59.62 15.41L59.62 11.31Q59.62 10.80 59.25 10.43Q58.88 10.06 58.37 10.06L58.37 10.06L43.36 10.06L43.36 7.44L58.37 7.44Q60 7.44 61.14 8.58Q62.27 9.71 62.27 11.31L62.27 11.31L62.27 26ZM47.23 23.38L47.23 23.38L59.62 23.38L59.62 18.03L45.98 18.03L45.98 22.13Q45.98 22.64 46.35 23.01Q46.72 23.38 47.23 23.38ZM84.13 26L69.09 26Q67.49 26 66.35 24.86Q65.22 23.73 65.22 22.13L65.22 22.13L65.22 11.31Q65.22 9.71 66.35 8.58Q67.49 7.44 69.09 7.44L69.09 7.44L84.06 7.44L84.06 10.06L69.09 10.06Q68.58 10.06 68.21 10.43Q67.84 10.80 67.84 11.31L67.84 11.31L67.84 22.13Q67.84 22.64 68.21 23.01Q68.58 23.38 69.09 23.38L69.09 23.38L84.13 23.38L84.13 26ZM97.38 26L90.59 26Q88.96 26 87.84 24.86Q86.72 23.73 86.72 22.13L86.72 22.13L86.72 1.36L89.34 1.36L89.34 7.44L97.38 7.44L97.38 10.06L89.34 10.06L89.34 22.13Q89.34 22.64 89.71 23.01Q90.08 23.38 90.59 23.38L90.59 23.38L97.38 23.38L97.38 26ZM102.59 26L99.97 26L99.97 7.44L102.59 7.44L102.59 26ZM102.59 3.98L99.97 3.98L99.97 1.36L102.59 1.36L102.59 3.98ZM125.02 26L109.98 26Q108.38 26 107.25 24.86Q106.11 23.73 106.11 22.13L106.11 22.13L106.11 11.31Q106.11 9.71 107.25 8.58Q108.38 7.44 109.98 7.44L109.98 7.44L124.96 7.44L124.96 10.06L109.98 10.06Q109.47 10.06 109.10 10.43Q108.74 10.80 108.74 11.31L108.74 11.31L108.74 22.13Q108.74 22.64 109.10 23.01Q109.47 23.38 109.98 23.38L109.98 23.38L125.02 23.38L125.02 26ZM146.46 26L131.42 26Q129.82 26 128.69 24.86Q127.55 23.73 127.55 22.13L127.55 22.13L127.55 11.31Q127.55 9.71 128.69 8.58Q129.82 7.44 131.42 7.44L131.42 7.44L142.56 7.44Q144.19 7.44 145.33 8.58Q146.46 9.71 146.46 11.31L146.46 11.31L146.46 18.03L130.18 18.03L130.18 22.13Q130.18 22.64 130.54 23.01Q130.91 23.38 131.42 23.38L131.42 23.38L146.46 23.38L146.46 26ZM130.18 11.31L130.18 15.41L143.81 15.41L143.81 11.31Q143.81 10.80 143.44 10.43Q143.07 10.06 142.56 10.06L142.56 10.06L131.42 10.06Q130.91 10.06 130.54 10.43Q130.18 10.80 130.18 11.31L130.18 11.31Z"></path></svg><svg fill="#ffffff" x="139.40499877929688" y="166.31999969482422"><path d="M3.40 0.69L3.40 0.69Q3.89 0.69 4.24 0.76Q4.60 0.83 4.74 0.89L4.74 0.89L4.54 1.85Q4.39 1.78 4.13 1.71Q3.86 1.65 3.48 1.65L3.48 1.65Q2.70 1.65 2.39 2.07Q2.08 2.50 2.08 3.22L2.08 3.22L2.08 3.76L4.48 3.76L4.48 4.70L2.08 4.70L2.08 10L0.96 10L0.96 3.20Q0.96 2.00 1.55 1.34Q2.14 0.69 3.40 0.69ZM11.10 6.88L11.10 6.88Q11.10 7.62 10.88 8.22Q10.67 8.82 10.28 9.26Q9.89 9.69 9.35 9.92Q8.81 10.16 8.17 10.16L8.17 10.16Q7.54 10.16 7.00 9.92Q6.46 9.69 6.07 9.26Q5.68 8.82 5.46 8.22Q5.24 7.62 5.24 6.88L5.24 6.88Q5.24 6.15 5.46 5.54Q5.68 4.94 6.07 4.50Q6.46 4.07 7.00 3.84Q7.54 3.60 8.17 3.60L8.17 3.60Q8.81 3.60 9.35 3.84Q9.89 4.07 10.28 4.50Q10.67 4.94 10.88 5.54Q11.10 6.15 11.10 6.88ZM9.94 6.88L9.94 6.88Q9.94 5.82 9.46 5.21Q8.99 4.59 8.17 4.59L8.17 4.59Q7.36 4.59 6.88 5.21Q6.41 5.82 6.41 6.88L6.41 6.88Q6.41 7.94 6.88 8.55Q7.36 9.17 8.17 9.17L8.17 9.17Q8.99 9.17 9.46 8.55Q9.94 7.94 9.94 6.88ZM14.98 3.63L14.98 3.63Q15.12 3.63 15.31 3.65Q15.49 3.66 15.67 3.69Q15.85 3.72 16.00 3.75Q16.15 3.78 16.22 3.81L16.22 3.81L16.03 4.78Q15.90 4.73 15.59 4.67Q15.29 4.60 14.81 4.60L14.81 4.60Q14.50 4.60 14.19 4.67Q13.88 4.73 13.79 4.76L13.79 4.76L13.79 10L12.67 10L12.67 4.02Q13.07 3.88 13.66 3.75Q14.24 3.63 14.98 3.63ZM22.10 9.18L21.95 10.12Q20.92 10.10 20.48 9.68Q20.05 9.26 20.05 8.37L20.05 8.37L20.05 0.88L21.17 0.69L21.17 8.19Q21.17 8.46 21.22 8.64Q21.26 8.82 21.37 8.93Q21.48 9.04 21.66 9.09Q21.84 9.15 22.10 9.18L22.10 9.18ZM23.00 6.89L23.00 6.89Q23.00 6.06 23.24 5.45Q23.48 4.83 23.88 4.42Q24.28 4.01 24.79 3.81Q25.31 3.60 25.85 3.60L25.85 3.60Q27.11 3.60 27.78 4.39Q28.45 5.18 28.45 6.78L28.45 6.78Q28.45 6.86 28.45 6.97Q28.45 7.08 28.44 7.18L28.44 7.18L24.17 7.18Q24.24 8.15 24.73 8.66Q25.22 9.16 26.27 9.16L26.27 9.16Q26.86 9.16 27.26 9.06Q27.66 8.96 27.86 8.86L27.86 8.86L28.02 9.80Q27.82 9.90 27.31 10.02Q26.80 10.14 26.15 10.14L26.15 10.14Q25.33 10.14 24.74 9.90Q24.14 9.65 23.76 9.22Q23.38 8.79 23.19 8.19Q23.00 7.60 23.00 6.89ZM24.19 6.28L27.29 6.28Q27.30 5.52 26.91 5.04Q26.52 4.55 25.84 4.55L25.84 4.55Q25.45 4.55 25.16 4.70Q24.86 4.85 24.66 5.09Q24.46 5.33 24.34 5.64Q24.23 5.96 24.19 6.28L24.19 6.28ZM32.17 9.20L32.17 9.20Q32.57 9.20 32.87 9.18Q33.18 9.16 33.38 9.11L33.38 9.11L33.38 7.25Q33.26 7.19 32.99 7.15Q32.72 7.11 32.34 7.11L32.34 7.11Q32.09 7.11 31.81 7.14Q31.52 7.18 31.29 7.29Q31.06 7.41 30.90 7.61Q30.74 7.80 30.74 8.13L30.74 8.13Q30.74 8.73 31.13 8.96Q31.51 9.20 32.17 9.20ZM32.08 3.60L32.08 3.60Q32.75 3.60 33.21 3.78Q33.67 3.95 33.95 4.27Q34.24 4.59 34.36 5.03Q34.48 5.46 34.48 5.99L34.48 5.99L34.48 9.89Q34.33 9.92 34.07 9.96Q33.82 10 33.49 10.04Q33.17 10.07 32.79 10.10Q32.41 10.13 32.04 10.13L32.04 10.13Q31.51 10.13 31.07 10.02Q30.62 9.92 30.30 9.68Q29.98 9.45 29.80 9.06Q29.62 8.68 29.62 8.14L29.62 8.14Q29.62 7.62 29.83 7.25Q30.04 6.88 30.40 6.65Q30.76 6.42 31.24 6.32Q31.72 6.21 32.24 6.21L32.24 6.21Q32.41 6.21 32.59 6.23Q32.77 6.24 32.93 6.27Q33.10 6.30 33.22 6.33Q33.34 6.35 33.38 6.36L33.38 6.36L33.38 6.05Q33.38 5.78 33.32 5.51Q33.26 5.24 33.11 5.03Q32.95 4.82 32.68 4.69Q32.41 4.56 31.98 4.56L31.98 4.56Q31.43 4.56 31.01 4.64Q30.60 4.72 30.40 4.80L30.40 4.80L30.26 3.88Q30.48 3.78 30.98 3.69Q31.49 3.60 32.08 3.60ZM38.63 3.63L38.63 3.63Q38.77 3.63 38.96 3.65Q39.14 3.66 39.32 3.69Q39.50 3.72 39.65 3.75Q39.80 3.78 39.88 3.81L39.88 3.81L39.68 4.78Q39.55 4.73 39.25 4.67Q38.94 4.60 38.46 4.60L38.46 4.60Q38.15 4.60 37.84 4.67Q37.54 4.73 37.44 4.76L37.44 4.76L37.44 10L36.32 10L36.32 4.02Q36.72 3.88 37.31 3.75Q37.90 3.63 38.63 3.63ZM40.96 10L40.96 3.94Q41.34 3.84 41.98 3.74Q42.61 3.63 43.44 3.63L43.44 3.63Q44.18 3.63 44.68 3.84Q45.17 4.05 45.46 4.43Q45.76 4.80 45.88 5.33Q46.00 5.86 46.00 6.50L46.00 6.50L46.00 10L44.88 10L44.88 6.74Q44.88 6.16 44.80 5.75Q44.72 5.34 44.54 5.09Q44.36 4.84 44.06 4.73Q43.76 4.61 43.32 4.61L43.32 4.61Q43.14 4.61 42.95 4.62Q42.76 4.64 42.58 4.65Q42.41 4.67 42.27 4.70Q42.13 4.72 42.07 4.73L42.07 4.73L42.07 10L40.96 10ZM48.96 3.76L48.96 10L47.84 10L47.84 3.76L48.96 3.76ZM48.40 2.63L48.40 2.63Q48.10 2.63 47.89 2.43Q47.68 2.24 47.68 1.90L47.68 1.90Q47.68 1.56 47.89 1.37Q48.10 1.17 48.40 1.17L48.40 1.17Q48.70 1.17 48.91 1.37Q49.12 1.56 49.12 1.90L49.12 1.90Q49.12 2.24 48.91 2.43Q48.70 2.63 48.40 2.63ZM50.88 10L50.88 3.94Q51.26 3.84 51.90 3.74Q52.54 3.63 53.36 3.63L53.36 3.63Q54.11 3.63 54.60 3.84Q55.09 4.05 55.39 4.43Q55.68 4.80 55.80 5.33Q55.92 5.86 55.92 6.50L55.92 6.50L55.92 10L54.80 10L54.80 6.74Q54.80 6.16 54.73 5.75Q54.65 5.34 54.47 5.09Q54.29 4.84 53.99 4.73Q53.69 4.61 53.24 4.61L53.24 4.61Q53.06 4.61 52.87 4.62Q52.68 4.64 52.51 4.65Q52.33 4.67 52.19 4.70Q52.06 4.72 52.00 4.73L52.00 4.73L52.00 10L50.88 10ZM61.68 9.64L61.68 9.38Q61.54 9.47 61.12 9.62Q60.71 9.77 60.16 9.77L60.16 9.77Q59.59 9.77 59.09 9.59Q58.60 9.41 58.22 9.03Q57.85 8.66 57.64 8.09Q57.42 7.53 57.42 6.75L57.42 6.75Q57.42 6.06 57.62 5.49Q57.83 4.92 58.22 4.51Q58.61 4.10 59.17 3.86Q59.74 3.63 60.44 3.63L60.44 3.63Q61.22 3.63 61.81 3.74Q62.39 3.86 62.78 3.95L62.78 3.95L62.78 9.52Q62.78 10.96 62.04 11.61Q61.30 12.26 59.78 12.26L59.78 12.26Q59.20 12.26 58.67 12.16Q58.15 12.06 57.77 11.93L57.77 11.93L57.97 10.96Q58.31 11.09 58.79 11.19Q59.28 11.30 59.81 11.30L59.81 11.30Q60.80 11.30 61.24 10.90Q61.68 10.50 61.68 9.64L61.68 9.64ZM61.67 8.39L61.67 4.74Q61.50 4.70 61.22 4.65Q60.94 4.61 60.46 4.61L60.46 4.61Q59.56 4.61 59.07 5.20Q58.58 5.79 58.58 6.76L58.58 6.76Q58.58 7.30 58.72 7.68Q58.86 8.07 59.09 8.32Q59.33 8.57 59.63 8.69Q59.94 8.81 60.26 8.81L60.26 8.81Q60.71 8.81 61.08 8.69Q61.45 8.56 61.67 8.39L61.67 8.39ZM70.19 10.14L70.19 10.14Q69.43 10.14 68.86 9.90Q68.29 9.66 67.90 9.23Q67.51 8.80 67.32 8.21Q67.13 7.61 67.13 6.89L67.13 6.89Q67.13 6.17 67.34 5.57Q67.55 4.97 67.93 4.53Q68.32 4.10 68.87 3.85Q69.43 3.60 70.12 3.60L70.12 3.60Q70.54 3.60 70.96 3.68Q71.38 3.75 71.76 3.90L71.76 3.90L71.51 4.85Q71.26 4.73 70.93 4.66Q70.60 4.59 70.22 4.59L70.22 4.59Q69.29 4.59 68.79 5.18Q68.29 5.76 68.29 6.89L68.29 6.89Q68.29 7.40 68.41 7.82Q68.52 8.24 68.77 8.54Q69.01 8.84 69.40 9.00Q69.78 9.16 70.33 9.16L70.33 9.16Q70.78 9.16 71.14 9.08Q71.50 8.99 71.70 8.90L71.70 8.90L71.86 9.83Q71.76 9.89 71.58 9.95Q71.40 10 71.17 10.04Q70.94 10.08 70.69 10.11Q70.43 10.14 70.19 10.14ZM78.41 6.88L78.41 6.88Q78.41 7.62 78.19 8.22Q77.98 8.82 77.59 9.26Q77.20 9.69 76.66 9.92Q76.12 10.16 75.48 10.16L75.48 10.16Q74.84 10.16 74.30 9.92Q73.76 9.69 73.37 9.26Q72.98 8.82 72.77 8.22Q72.55 7.62 72.55 6.88L72.55 6.88Q72.55 6.15 72.77 5.54Q72.98 4.94 73.37 4.50Q73.76 4.07 74.30 3.84Q74.84 3.60 75.48 3.60L75.48 3.60Q76.12 3.60 76.66 3.84Q77.20 4.07 77.59 4.50Q77.98 4.94 78.19 5.54Q78.41 6.15 78.41 6.88ZM77.24 6.88L77.24 6.88Q77.24 5.82 76.77 5.21Q76.30 4.59 75.48 4.59L75.48 4.59Q74.66 4.59 74.19 5.21Q73.72 5.82 73.72 6.88L73.72 6.88Q73.72 7.94 74.19 8.55Q74.66 9.17 75.48 9.17L75.48 9.17Q76.30 9.17 76.77 8.55Q77.24 7.94 77.24 6.88ZM84.01 9.03L84.01 5.08Q83.81 4.91 83.42 4.76Q83.04 4.60 82.58 4.60L82.58 4.60Q82.10 4.60 81.76 4.77Q81.42 4.95 81.20 5.25Q80.99 5.56 80.89 5.98Q80.80 6.40 80.80 6.88L80.80 6.88Q80.80 7.97 81.34 8.57Q81.88 9.16 82.78 9.16L82.78 9.16Q83.23 9.16 83.54 9.12Q83.84 9.08 84.01 9.03L84.01 9.03ZM84.01 4.04L84.01 0.88L85.13 0.69L85.13 9.82Q84.74 9.93 84.14 10.04Q83.54 10.14 82.76 10.14L82.76 10.14Q82.04 10.14 81.47 9.92Q80.89 9.69 80.48 9.27Q80.08 8.85 79.85 8.24Q79.63 7.64 79.63 6.88L79.63 6.88Q79.63 6.16 79.82 5.56Q80.00 4.96 80.36 4.53Q80.72 4.10 81.25 3.86Q81.77 3.62 82.44 3.62L82.44 3.62Q82.98 3.62 83.39 3.76Q83.81 3.90 84.01 4.04L84.01 4.04ZM86.70 6.89L86.70 6.89Q86.70 6.06 86.94 5.45Q87.18 4.83 87.58 4.42Q87.97 4.01 88.49 3.81Q89.00 3.60 89.54 3.60L89.54 3.60Q90.80 3.60 91.48 4.39Q92.15 5.18 92.15 6.78L92.15 6.78Q92.15 6.86 92.15 6.97Q92.15 7.08 92.14 7.18L92.14 7.18L87.86 7.18Q87.94 8.15 88.43 8.66Q88.92 9.16 89.96 9.16L89.96 9.16Q90.55 9.16 90.95 9.06Q91.36 8.96 91.56 8.86L91.56 8.86L91.72 9.80Q91.51 9.90 91.00 10.02Q90.49 10.14 89.84 10.14L89.84 10.14Q89.03 10.14 88.43 9.90Q87.84 9.65 87.46 9.22Q87.07 8.79 86.89 8.19Q86.70 7.60 86.70 6.89ZM87.89 6.28L90.98 6.28Q91.00 5.52 90.61 5.04Q90.22 4.55 89.53 4.55L89.53 4.55Q89.15 4.55 88.85 4.70Q88.56 4.85 88.36 5.09Q88.15 5.33 88.04 5.64Q87.92 5.96 87.89 6.28L87.89 6.28Z"></path></svg></svg>